<svg width="27" height="29" viewBox="0 0 27 29" fill="none" xmlns="http://www.w3.org/2000/svg">
<g clip-path="url(#clip0_104_62)">
<path d="M13.7407 12.2998C12.5748 12.2998 11.4566 11.8366 10.6322 11.0122C9.80774 10.1877 9.34457 9.06955 9.34457 7.90361C9.34457 6.73768 9.80774 5.61949 10.6322 4.79505C11.4566 3.97061 12.5748 3.50745 13.7407 3.50745C14.9067 3.50745 16.0249 3.97061 16.8493 4.79505C17.6737 5.61949 18.1369 6.73768 18.1369 7.90361C18.1369 9.06955 17.6737 10.1877 16.8493 11.0122C16.0249 11.8366 14.9067 12.2998 13.7407 12.2998ZM13.7407 5.26591C12.2812 5.26591 11.103 6.44409 11.103 7.90361C11.103 9.36314 12.2812 10.5413 13.7407 10.5413C15.2003 10.5413 16.3784 9.36314 16.3784 7.90361C16.3784 6.44409 15.2003 5.26591 13.7407 5.26591Z" fill="#AA8453"/>
<path d="M24.2915 19.3336C23.7992 19.3336 23.4123 18.9468 23.4123 18.4544C23.4123 17.962 23.7992 17.5752 24.2915 17.5752C24.7839 17.5752 25.1708 17.1883 25.1708 16.6959C25.1708 15.53 24.7076 14.4118 23.8832 13.5874C23.0587 12.7629 21.9405 12.2998 20.7746 12.2998H19.0161C18.5238 12.2998 18.1369 11.9129 18.1369 11.4205C18.1369 10.9282 18.5238 10.5413 19.0161 10.5413C20.4757 10.5413 21.6538 9.36314 21.6538 7.90361C21.6538 6.44409 20.4757 5.26591 19.0161 5.26591C18.5238 5.26591 18.1369 4.87905 18.1369 4.38668C18.1369 3.89431 18.5238 3.50745 19.0161 3.50745C20.1821 3.50745 21.3003 3.97061 22.1247 4.79505C22.9491 5.61949 23.4123 6.73768 23.4123 7.90361C23.4123 8.99386 23.0254 9.9786 22.3572 10.7523C24.9773 11.4557 26.9292 13.8472 26.9292 16.6959C26.9292 18.1555 25.7511 19.3336 24.2915 19.3336ZM3.18995 19.3336C1.73042 19.3336 0.552246 18.1555 0.552246 16.6959C0.552246 13.8472 2.48656 11.4557 5.12426 10.7523C4.47363 9.9786 4.06918 8.99386 4.06918 7.90361C4.06918 6.73768 4.53235 5.61949 5.35679 4.79505C6.18123 3.97061 7.29941 3.50745 8.46535 3.50745C8.95772 3.50745 9.34458 3.89431 9.34458 4.38668C9.34458 4.87905 8.95772 5.26591 8.46535 5.26591C7.00582 5.26591 5.82765 6.44409 5.82765 7.90361C5.82765 9.36314 7.00582 10.5413 8.46535 10.5413C8.95772 10.5413 9.34458 10.9282 9.34458 11.4205C9.34458 11.9129 8.95772 12.2998 8.46535 12.2998H6.70688C5.54094 12.2998 4.42276 12.7629 3.59832 13.5874C2.77388 14.4118 2.31071 15.53 2.31071 16.6959C2.31071 17.1883 2.69758 17.5752 3.18995 17.5752C3.68232 17.5752 4.06918 17.962 4.06918 18.4544C4.06918 18.9468 3.68232 19.3336 3.18995 19.3336ZM19.0161 24.609H8.46535C7.00582 24.609 5.82765 23.4309 5.82765 21.9713V20.2129C5.82765 16.819 8.58844 14.0582 11.9823 14.0582H15.4992C18.8931 14.0582 21.6538 16.819 21.6538 20.2129V21.9713C21.6538 23.4309 20.4757 24.609 19.0161 24.609ZM11.9823 15.8167C10.8163 15.8167 9.69816 16.2799 8.87372 17.1043C8.04928 17.9288 7.58611 19.0469 7.58611 20.2129V21.9713C7.58611 22.4637 7.97297 22.8506 8.46535 22.8506H19.0161C19.5085 22.8506 19.8954 22.4637 19.8954 21.9713V20.2129C19.8954 19.0469 19.4322 17.9288 18.6078 17.1043C17.7833 16.2799 16.6651 15.8167 15.4992 15.8167H11.9823Z" fill="#AA8453"/>
</g>
<defs>
<clipPath id="clip0_104_62">
<rect width="26.377" height="28.1355" fill="white" transform="translate(0.552246 -0.00952148)"/>
</clipPath>
</defs>
</svg>
