<svg width="20" height="20" viewBox="0 0 20 20" fill="none" xmlns="http://www.w3.org/2000/svg">
<path fill-rule="evenodd" clip-rule="evenodd" d="M9.99999 3.45825C9.00749 3.45825 7.84999 3.48159 6.72166 3.51325L6.67582 3.51492C5.52749 3.54742 4.60082 3.57325 3.87082 3.69409C3.10999 3.81992 2.47832 4.06075 1.97332 4.57992C1.46666 5.10075 1.24582 5.74492 1.14166 6.51575C1.04166 7.25742 1.04166 8.19742 1.04166 9.36575V10.6358C1.04166 11.8024 1.04166 12.7424 1.14166 13.4849C1.24499 14.2558 1.46666 14.8999 1.97332 15.4208C2.47832 15.9408 3.10999 16.1808 3.87082 16.3066C4.60082 16.4274 5.52749 16.4533 6.67582 16.4858L6.72166 16.4874C7.85082 16.5191 9.00749 16.5424 9.99999 16.5424C10.9925 16.5424 12.15 16.5191 13.2783 16.4874L13.3242 16.4858C14.4725 16.4533 15.3992 16.4274 16.1292 16.3066C16.89 16.1808 17.5217 15.9399 18.0267 15.4208C18.5333 14.8999 18.755 14.2558 18.8583 13.4849C18.9583 12.7433 18.9583 11.8033 18.9583 10.6349V9.36492C18.9583 8.19742 18.9583 7.25742 18.8583 6.51575C18.755 5.74492 18.5333 5.10075 18.0267 4.57992C17.5217 4.05992 16.89 3.81992 16.1292 3.69409C15.3992 3.57325 14.4725 3.54742 13.3233 3.51492L13.2783 3.51325C12.1858 3.48009 11.093 3.46176 9.99999 3.45825ZM9.05999 12.2091C8.96495 12.2634 8.85733 12.2917 8.74788 12.2914C8.63843 12.291 8.531 12.2619 8.43633 12.207C8.34166 12.152 8.26308 12.0732 8.20844 11.9784C8.1538 11.8836 8.12502 11.776 8.12499 11.6666V8.33325C8.12502 8.2238 8.1538 8.11628 8.20844 8.02145C8.26308 7.92661 8.34166 7.84779 8.43633 7.79286C8.531 7.73793 8.63843 7.70883 8.74788 7.70846C8.85733 7.70809 8.96495 7.73646 9.05999 7.79075L11.9767 9.45742C12.0722 9.5121 12.1517 9.59108 12.2069 9.68635C12.2622 9.78161 12.2913 9.88979 12.2913 9.99992C12.2913 10.11 12.2622 10.2182 12.2069 10.3135C12.1517 10.4088 12.0722 10.4877 11.9767 10.5424L9.05999 12.2091Z" fill="white"/>
</svg>
